<?xml version="1.0" encoding="UTF-8" standalone="no"?>
<!-- Created with Inkscape (http://www.inkscape.org/) -->

<svg
   xmlns:dc="http://purl.org/dc/elements/1.1/"
   xmlns:cc="http://creativecommons.org/ns#"
   xmlns:rdf="http://www.w3.org/1999/02/22-rdf-syntax-ns#"
   xmlns:svg="http://www.w3.org/2000/svg"
   xmlns="http://www.w3.org/2000/svg"
   xmlns:sodipodi="http://sodipodi.sourceforge.net/DTD/sodipodi-0.dtd"
   xmlns:inkscape="http://www.inkscape.org/namespaces/inkscape"
   id="svg2"
   version="1.1"
   inkscape:version="0.48.2 r9819"
   width="1182.4626"
   height="1292.4966"
   xml:space="preserve"
   sodipodi:docname="icon.svg"><metadata
     id="metadata8"><rdf:RDF><cc:Work
         rdf:about=""><dc:format>image/svg+xml</dc:format><dc:type
           rdf:resource="http://purl.org/dc/dcmitype/StillImage" /></cc:Work></rdf:RDF></metadata><defs
     id="defs6"><clipPath
       clipPathUnits="userSpaceOnUse"
       id="clipPath16"><path
         d="m 0,1280 1280,0 L 1280,0 0,0 0,1280 z"
         id="path18"
         inkscape:connector-curvature="0" /></clipPath></defs><sodipodi:namedview
     pagecolor="#ffffff"
     bordercolor="#666666"
     borderopacity="1"
     objecttolerance="10"
     gridtolerance="10"
     guidetolerance="10"
     inkscape:pageopacity="0"
     inkscape:pageshadow="2"
     inkscape:window-width="1366"
     inkscape:window-height="708"
     id="namedview4"
     showgrid="false"
     inkscape:zoom="0.32"
     inkscape:cx="961.27794"
     inkscape:cy="720.7326"
     inkscape:window-x="-4"
     inkscape:window-y="764"
     inkscape:window-maximized="1"
     inkscape:current-layer="g14"
     fit-margin-top="0"
     fit-margin-left="0"
     fit-margin-right="0"
     fit-margin-bottom="0" /><g
     id="g10"
     inkscape:groupmode="layer"
     inkscape:label="Stopwatch"
     transform="matrix(1.25,0,0,-1.25,-189.61994,1550.0991)"><g
       id="g12"><g
         id="g14"
         clip-path="url(#clipPath16)"><g
           id="g24"
           transform="translate(1062.3125,681.0107)"><path
             d="m 0,0 c 0,-241.698 -195.934,-437.632 -437.632,-437.632 -241.695,0 -437.63,195.934 -437.63,437.632 0,241.696 195.935,437.63 437.63,437.63 C -195.934,437.63 0,241.696 0,0"
             style="fill:#fefdef;fill-opacity:1;fill-rule:nonzero;stroke:none"
             id="path26"
             inkscape:connector-curvature="0" /></g><g
           id="g28"
           transform="translate(624.6807,276.3457)"><path
             d="m 0,0 c -108.089,0 -209.709,42.092 -286.141,118.523 -76.431,76.432 -118.524,178.053 -118.524,286.142 0,108.09 42.093,209.71 118.524,286.141 76.432,76.431 178.052,118.524 286.141,118.524 108.091,0 209.712,-42.093 286.144,-118.524 76.429,-76.431 118.522,-178.051 118.522,-286.141 0,-108.089 -42.093,-209.71 -118.522,-286.142 C 209.712,42.092 108.091,0 0,0 z"
             style="fill:none;stroke:#c20000;stroke-width:5;stroke-linecap:butt;stroke-linejoin:miter;stroke-miterlimit:10;stroke-opacity:1;stroke-dasharray:none"
             id="path30"
             inkscape:connector-curvature="0" /></g><g
           id="g32"
           transform="translate(624.6807,296.123)"><path
             d="m 0,0 c -102.806,0 -199.459,40.035 -272.155,112.73 -72.695,72.698 -112.73,169.352 -112.73,272.158 0,102.806 40.035,199.459 112.73,272.155 72.696,72.695 169.349,112.73 272.155,112.73 102.808,0 199.462,-40.035 272.157,-112.73 72.695,-72.696 112.73,-169.349 112.73,-272.155 0,-102.806 -40.035,-199.458 -112.73,-272.158 C 199.462,40.035 102.808,0 0,0 z"
             style="fill:none;stroke:#c20000;stroke-width:1;stroke-linecap:butt;stroke-linejoin:miter;stroke-miterlimit:10;stroke-opacity:1;stroke-dasharray:4.977, 4.977, 4.977, 4.977, 4.977, 4.977;stroke-dashoffset:0"
             id="path34"
             inkscape:connector-curvature="0" /></g><g
           id="g36"
           transform="translate(624.6807,309.3105)"><path
             d="m 0,0 c -99.283,0 -192.625,38.664 -262.831,108.869 -70.204,70.205 -108.868,163.547 -108.868,262.831 0,99.285 38.664,192.626 108.868,262.831 70.205,70.204 163.547,108.868 262.831,108.868 99.286,0 192.628,-38.664 262.833,-108.868 C 333.037,564.326 371.701,470.985 371.701,371.7 371.701,272.416 333.037,179.074 262.833,108.869 192.628,38.664 99.286,0 0,0 z"
             style="fill:none;stroke:#c20000;stroke-width:5;stroke-linecap:butt;stroke-linejoin:miter;stroke-miterlimit:10;stroke-opacity:1;stroke-dasharray:none"
             id="path38"
             inkscape:connector-curvature="0" /></g><g
           id="g40"
           transform="translate(624.6807,252.2363)"><path
             d="m 0,0 c -114.011,-0.002 -221.198,44.398 -301.815,125.014 -80.619,80.619 -125.018,187.806 -125.018,301.817 0,114.011 44.399,221.198 125.018,301.817 C -221.198,809.266 -114.011,853.665 0,853.665 114.013,853.664 221.2,809.266 301.817,728.648 382.436,648.03 426.833,540.842 426.833,426.831 426.833,312.82 382.436,205.633 301.816,125.014 221.199,44.396 114.013,-0.002 0,0 m 334.452,761.282 c -184.713,184.713 -484.189,184.712 -668.902,0 -184.712,-184.712 -184.714,-484.19 0,-668.903 184.712,-184.711 484.189,-184.711 668.9,0 184.714,184.713 184.713,484.191 0.002,668.903"
             style="fill:#c20000;fill-opacity:1;fill-rule:nonzero;stroke:none"
             id="path42"
             inkscape:connector-curvature="0" /></g><g
           id="g44"
           transform="translate(974.2793,966.02)"
           style="fill:#c20000;fill-opacity:1"><path
             d="m 0,0 c -2.575,-2.575 -6.75,-2.575 -9.323,0 l -51.756,51.756 c -2.576,2.574 -2.576,6.75 0,9.324 l 60.943,60.944 c 2.575,2.575 6.75,2.574 9.324,0 L 60.945,70.268 c 2.575,-2.574 2.575,-6.749 0,-9.323 L 0,0 z"
             style="fill:#c20000;fill-opacity:1;fill-rule:nonzero;stroke:none"
             id="path46"
             inkscape:connector-curvature="0" /></g><g
           id="g48"
           transform="translate(1066.9121,1007.5732)"
           style="fill:#c20000;fill-opacity:1"><path
             d="m 0,0 c 2.574,2.575 2.574,6.749 0,9.325 l -102.834,102.834 c -2.576,2.575 -6.75,2.575 -9.326,0 l -6.892,-6.892 c -2.575,-2.575 -2.575,-6.749 0,-9.324 L -16.217,-6.892 c 2.574,-2.575 6.75,-2.575 9.325,0 L 0,0 z"
             style="fill:#c20000;fill-opacity:1;fill-rule:nonzero;stroke:none"
             id="path50"
             inkscape:connector-curvature="0" /></g><g
           id="g52"
           transform="translate(663.8574,1168.3193)"
           style="fill:#c20000;fill-opacity:1"><path
             d="m 0,0 c 0,-3.641 -2.952,-6.593 -6.593,-6.593 l -65.167,0 c -3.641,0 -6.593,2.952 -6.593,6.593 l 0,65.167 c 0,3.641 2.952,6.593 6.593,6.593 l 65.167,0 C -2.952,71.76 0,68.808 0,65.167 L 0,0 z"
             style="fill:#c20000;fill-opacity:1;fill-rule:nonzero;stroke:none"
             id="path54"
             inkscape:connector-curvature="0" /></g><g
           id="g56"
           transform="translate(655.2578,1145.8506)"
           style="fill:#c20000;fill-opacity:1"><path
             d="m 0,0 c 0,-2.841 -2.303,-5.146 -5.146,-5.146 l -50.861,0 c -2.843,0 -5.146,2.305 -5.146,5.146 l 0,50.862 c 0,2.842 2.303,5.146 5.146,5.146 l 50.861,0 C -2.303,56.008 0,53.704 0,50.862 L 0,0 z"
             style="fill:#c20000;fill-opacity:1;fill-rule:nonzero;stroke:none"
             id="path58"
             inkscape:connector-curvature="0" /></g><path
           d="m 628.735,1066.977 -7.919,0 0,18.677 7.919,0 0,-18.677 z"
           style="fill:#c20000;fill-opacity:1;fill-rule:nonzero;stroke:none"
           id="path60"
           inkscape:connector-curvature="0" /><path
           d="m 632.693,276.346 -7.918,0 0,18.676 7.918,0 0,-18.676 z"
           style="fill:#c20000;fill-opacity:1;fill-rule:nonzero;stroke:none"
           id="path62"
           inkscape:connector-curvature="0" /><path
           d="m 238.693,675.109 -18.677,0 0,7.917 18.677,0 0,-7.917 z"
           style="fill:#c20000;fill-opacity:1;fill-rule:nonzero;stroke:none"
           id="path64"
           inkscape:connector-curvature="0" /><path
           d="m 1029.347,679.067 -18.677,0 0,7.917 18.677,0 0,-7.917 z"
           style="fill:#c20000;fill-opacity:1;fill-rule:nonzero;stroke:none"
           id="path66"
           inkscape:connector-curvature="0" /><g
           id="g68"
           transform="translate(551.4204,844.2241)"><path
             d="m -101.30058,116.97224 474.94616,-274.2095 -474.94616,-274.21298 0,548.42248 z"
             style="fill:#e80000;fill-opacity:1;fill-rule:nonzero;stroke:none"
             id="path70"
             inkscape:connector-curvature="0" /></g></g></g></g></svg>