<?xml version="1.0" encoding="UTF-8" standalone="no"?>
<!-- Created with Inkscape (http://www.inkscape.org/) -->

<svg
   xmlns:dc="http://purl.org/dc/elements/1.1/"
   xmlns:cc="http://creativecommons.org/ns#"
   xmlns:rdf="http://www.w3.org/1999/02/22-rdf-syntax-ns#"
   xmlns:svg="http://www.w3.org/2000/svg"
   xmlns="http://www.w3.org/2000/svg"
   xmlns:sodipodi="http://sodipodi.sourceforge.net/DTD/sodipodi-0.dtd"
   xmlns:inkscape="http://www.inkscape.org/namespaces/inkscape"
   width="744.09448819"
   height="1052.3622047"
   id="svg2"
   version="1.1"
   inkscape:version="0.48.2 r9819"
   sodipodi:docname="Logos.svg">
  <defs
     id="defs4">
    <clipPath
       id="clipPath3315"
       clipPathUnits="userSpaceOnUse">
      <path
         id="path3317"
         d="m 0,1280 1280,0 L 1280,0 0,0 0,1280 z" />
    </clipPath>
    <clipPath
       id="clipPath3245"
       clipPathUnits="userSpaceOnUse">
      <path
         id="path3247"
         d="m 0,1280 1280,0 L 1280,0 0,0 0,1280 z" />
    </clipPath>
    <clipPath
       id="clipPath2999"
       clipPathUnits="userSpaceOnUse">
      <path
         id="path3001"
         d="m 0,1280 1280,0 L 1280,0 0,0 0,1280 z" />
    </clipPath>
  </defs>
  <sodipodi:namedview
     id="base"
     pagecolor="#ffffff"
     bordercolor="#666666"
     borderopacity="1.0"
     inkscape:pageopacity="0.0"
     inkscape:pageshadow="2"
     inkscape:zoom="0.52891615"
     inkscape:cx="768.94374"
     inkscape:cy="673.57828"
     inkscape:document-units="px"
     inkscape:current-layer="g2993"
     showgrid="false"
     inkscape:window-width="1366"
     inkscape:window-height="708"
     inkscape:window-x="-4"
     inkscape:window-y="764"
     inkscape:window-maximized="1" />
  <metadata
     id="metadata7">
    <rdf:RDF>
      <cc:Work
         rdf:about="">
        <dc:format>image/svg+xml</dc:format>
        <dc:type
           rdf:resource="http://purl.org/dc/dcmitype/StillImage" />
        <dc:title />
      </cc:Work>
    </rdf:RDF>
  </metadata>
  <g
     inkscape:label="Layer 1"
     inkscape:groupmode="layer"
     id="layer1">
    <g
       transform="matrix(1.25,0,0,-1.25,-371.77406,1378.9087)"
       inkscape:label="Icon"
       id="g2993">
      <path
         inkscape:connector-curvature="0"
         d="m 649.5859,1137.9194 -219.377,0 0,-407.811 313.391,0 0,313.796 -94.014,94.015 z"
         style="fill:#ffffff;fill-opacity:1;fill-rule:nonzero;stroke:none"
         id="path3221" />
      <path
         inkscape:connector-curvature="0"
         d="m 649.5859,1137.9194 -219.377,0 0,-407.811 313.391,0 0,313.796 -94.014,94.015 z"
         style="fill:none;stroke:#000000;stroke-width:5;stroke-linecap:butt;stroke-linejoin:miter;stroke-miterlimit:10;stroke-opacity:1;stroke-dasharray:none"
         id="path3225" />
      <g
         id="g3133">
        <path
           id="path3229"
           style="fill:#000000;fill-opacity:1;fill-rule:nonzero;stroke:none"
           d="m 490.27,1092.438 46.805,-27.023 -46.805,-27.022 0,54.045 z"
           inkscape:connector-curvature="0" />
        <path
           id="path3233"
           style="fill:#000000;fill-opacity:1;fill-rule:nonzero;stroke:none"
           d="m 506.5269,1118.501 c -29.271,0 -53.086,-23.814 -53.086,-53.086 0,-29.271 23.815,-53.085 53.086,-53.085 29.271,0 53.085,23.814 53.085,53.085 0,29.272 -23.814,53.086 -53.085,53.086 m 0,-111.788 c -32.368,0 -58.702,26.333 -58.702,58.702 0,32.369 26.334,58.703 58.702,58.703 32.368,0 58.703,-26.334 58.703,-58.703 0,-32.369 -26.335,-58.702 -58.703,-58.702"
           inkscape:connector-curvature="0" />
      </g>
      <path
         id="path3235"
         style="fill:#000000;fill-opacity:1;fill-rule:nonzero;stroke:none"
         d="m 743.6,730.108 -313.391,0 0,88.178 313.391,0 0,-88.178 z"
         inkscape:connector-curvature="0" />
      <text
         id="text3237"
         transform="scale(1,-1)"
         x="469.13095"
         y="-740.87109">
        <tspan
           id="tspan3239"
           sodipodi:role="line"
           style="font-size:72px;font-variant:normal;font-weight:normal;font-stretch:normal;writing-mode:lr-tb;fill:#ffffff;fill-opacity:1;fill-rule:nonzero;stroke:none;font-family:'Rockin\' Record';-inkscape-font-specification:'Rockin\'-Record'"
           x="469.13095"
           y="-740.87109">Stats</tspan>
      </text>
      <g
         transform="translate(457.2075,855.3159)"
         id="g3249">
        <path
           id="path3251"
           style="fill:#000000;stroke:#000000;stroke-width:3;stroke-linecap:butt;stroke-linejoin:miter;stroke-miterlimit:10;stroke-opacity:1;stroke-dasharray:none"
           d="M 0,0 254.988,0"
           inkscape:connector-curvature="0" />
      </g>
      <g
         transform="translate(457.2075,885.3159)"
         id="g3253">
        <path
           id="path3255"
           style="fill:#000000;stroke:#000000;stroke-width:3;stroke-linecap:butt;stroke-linejoin:miter;stroke-miterlimit:10;stroke-opacity:1;stroke-dasharray:none"
           d="M 0,0 254.988,0"
           inkscape:connector-curvature="0" />
      </g>
      <g
         transform="translate(457.2075,915.3159)"
         id="g3257">
        <path
           id="path3259"
           style="fill:#000000;stroke:#000000;stroke-width:3;stroke-linecap:butt;stroke-linejoin:miter;stroke-miterlimit:10;stroke-opacity:1;stroke-dasharray:none"
           d="M 0,0 254.988,0"
           inkscape:connector-curvature="0" />
      </g>
      <g
         transform="translate(457.2075,945.3159)"
         id="g3261">
        <path
           id="path3263"
           style="fill:#000000;stroke:#000000;stroke-width:3;stroke-linecap:butt;stroke-linejoin:miter;stroke-miterlimit:10;stroke-opacity:1;stroke-dasharray:none"
           d="M 0,0 254.988,0"
           inkscape:connector-curvature="0" />
      </g>
      <g
         transform="translate(457.2075,975.3159)"
         id="g3265">
        <path
           id="path3267"
           style="fill:#000000;stroke:#000000;stroke-width:3;stroke-linecap:butt;stroke-linejoin:miter;stroke-miterlimit:10;stroke-opacity:1;stroke-dasharray:none"
           d="M 0,0 254.988,0"
           inkscape:connector-curvature="0" />
      </g>
      <g
         transform="translate(1045.5664,1130.8999)"
         id="g3269">
        <path
           id="path3271"
           style="fill:#ffffff;fill-opacity:1;fill-rule:nonzero;stroke:none"
           d="m 0,0 -219.377,0 0,-407.811 313.391,0 0,313.796 L 0,0 z"
           inkscape:connector-curvature="0" />
      </g>
      <g
         transform="translate(1045.5664,1130.8999)"
         id="g3273">
        <path
           id="path3275"
           style="fill:none;stroke:#000000;stroke-width:5;stroke-linecap:butt;stroke-linejoin:miter;stroke-miterlimit:10;stroke-opacity:1;stroke-dasharray:none"
           d="m 0,0 -219.377,0 0,-407.811 313.391,0 0,313.796 L 0,0 z"
           inkscape:connector-curvature="0" />
      </g>
      <g
         transform="translate(906.7617,1105.3794)"
         id="g3277">
        <path
           id="path3279"
           style="fill:#373535;fill-opacity:1;fill-rule:nonzero;stroke:none"
           d="m 0,0 c -26.714,0 -48.448,-21.735 -48.448,-48.449 0,-26.714 21.734,-48.448 48.448,-48.448 26.715,0 48.449,21.734 48.449,48.448 C 48.449,-21.735 26.715,0 0,0 m 0,-102.023 c -29.541,0 -53.574,24.033 -53.574,53.574 0,29.541 24.033,53.575 53.574,53.575 29.541,0 53.574,-24.034 53.574,-53.575 0,-29.541 -24.033,-53.574 -53.574,-53.574"
           inkscape:connector-curvature="0" />
      </g>
      <g
         transform="translate(906.8184,1027.3799)"
         id="g3281">
        <path
           id="path3283"
           style="fill:#000000;fill-opacity:1;fill-rule:nonzero;stroke:none"
           d="m 0,0 c -16.205,0 -29.391,13.185 -29.391,29.392 0,16.205 13.186,29.39 29.391,29.39 16.207,0 29.392,-13.185 29.392,-29.39 C 29.392,13.185 16.207,0 0,0 m 0,62.253 c -18.148,0 -32.861,-14.713 -32.861,-32.861 0,-18.15 14.713,-32.863 32.861,-32.863 18.149,0 32.862,14.713 32.862,32.863 C 32.862,47.54 18.149,62.253 0,62.253"
           inkscape:connector-curvature="0" />
      </g>
      <g
         transform="translate(906.8184,1086.1621)"
         id="g3285">
        <path
           id="path3287"
           style="fill:#ffffff;fill-opacity:1;fill-rule:nonzero;stroke:none"
           d="m 0,0 c -16.205,0 -29.391,-13.185 -29.391,-29.391 0,-16.206 13.186,-29.391 29.391,-29.391 16.207,0 29.392,13.185 29.392,29.391 C 29.392,-13.185 16.207,0 0,0"
           inkscape:connector-curvature="0" />
      </g>
      <g
         transform="translate(907.0137,1056.1001)"
         id="g3289">
        <path
           id="path3291"
           style="fill:#000000;fill-opacity:1;fill-rule:nonzero;stroke:none"
           d="m 0,0 c 0,-0.524 -0.425,-0.949 -0.949,-0.949 -0.524,0 -0.949,0.425 -0.949,0.949 l 0,28.293 c 0,0.525 0.425,0.95 0.949,0.95 0.524,0 0.949,-0.425 0.949,-0.95 L 0,0 z"
           inkscape:connector-curvature="0" />
      </g>
      <g
         transform="translate(906.7363,1055.2881)"
         id="g3293">
        <path
           id="path3295"
           style="fill:#000000;fill-opacity:1;fill-rule:nonzero;stroke:none"
           d="m 0,0 c -0.371,-0.371 -0.973,-0.371 -1.343,0 -0.37,0.371 -0.37,0.971 0,1.342 l 20.006,20.007 c 0.371,0.371 0.973,0.371 1.343,0 0.371,-0.37 0.371,-0.972 0,-1.343 L 0,0 z"
           inkscape:connector-curvature="0" />
      </g>
      <g
         transform="translate(909.9639,1086.8833)"
         id="g3297">
        <path
           id="path3299"
           style="fill:#000000;fill-opacity:1;fill-rule:nonzero;stroke:none"
           d="m 0,0 c 0,-0.399 -0.37,-0.721 -0.827,-0.721 l -4.246,0 c -0.457,0 -0.826,0.322 -0.826,0.721 l 0,8.26 c 0,0.399 0.369,0.721 0.826,0.721 l 4.246,0 C -0.37,8.981 0,8.659 0,8.26 L 0,0 z"
           inkscape:connector-curvature="0" />
      </g>
      <g
         transform="translate(911.9805,1096.6133)"
         id="g3301">
        <path
           id="path3303"
           style="fill:#000000;fill-opacity:1;fill-rule:nonzero;stroke:none"
           d="m 0,0 c 0,0.413 -0.335,0.748 -0.747,0.748 l -8.222,0 c -0.413,0 -0.748,-0.335 -0.748,-0.748 0,-0.414 0.335,-0.749 0.748,-0.749 l 8.222,0 C -0.335,-0.749 0,-0.414 0,0"
           inkscape:connector-curvature="0" />
      </g>
      <path
         id="path3305"
         style="fill:#000000;fill-opacity:1;fill-rule:nonzero;stroke:#000000"
         d="m 1139.58,723.089 -313.391,0 0,88.178 313.391,0 0,-88.178 z"
         inkscape:connector-curvature="0" />
      <g
         id="g3143"
         transform="translate(906.7617,1105.3794)">
        <path
           inkscape:connector-curvature="0"
           d="m 0,0 c -26.714,0 -48.448,-21.735 -48.448,-48.449 0,-26.714 21.734,-48.448 48.448,-48.448 26.715,0 48.449,21.734 48.449,48.448 C 48.449,-21.735 26.715,0 0,0 m 0,-102.023 c -29.541,0 -53.574,24.033 -53.574,53.574 0,29.541 24.033,53.575 53.574,53.575 29.541,0 53.574,-24.034 53.574,-53.575 0,-29.541 -24.033,-53.574 -53.574,-53.574"
           style="fill:#000000;fill-opacity:1;fill-rule:nonzero;stroke:none"
           id="path3145" />
      </g>
      <text
         id="text3307"
         transform="matrix(1,0,0,-1,914.2593,733.8516)">
        <tspan
           id="tspan3309"
           sodipodi:role="line"
           y="0"
           x="0 43.848 91.080002"
           style="font-size:72px;font-variant:normal;font-weight:normal;font-stretch:normal;writing-mode:lr-tb;fill:#ffffff;fill-opacity:1;fill-rule:nonzero;stroke:none;font-family:'Rockin\' Record';-inkscape-font-specification:'Rockin\'-Record'">LOG</tspan>
      </text>
      <g
         id="g3313"
         clip-path="url(#clipPath3315)">
        <g
           id="g3319"
           transform="translate(853.1875,848.2964)">
          <path
             inkscape:connector-curvature="0"
             d="M 0,0 254.988,0"
             style="fill:none;stroke:#000000;stroke-width:3;stroke-linecap:butt;stroke-linejoin:miter;stroke-miterlimit:10;stroke-opacity:1;stroke-dasharray:none"
             id="path3321" />
        </g>
        <g
           id="g3323"
           transform="translate(853.1875,878.2964)">
          <path
             inkscape:connector-curvature="0"
             d="M 0,0 254.988,0"
             style="fill:none;stroke:#000000;stroke-width:3;stroke-linecap:butt;stroke-linejoin:miter;stroke-miterlimit:10;stroke-opacity:1;stroke-dasharray:none"
             id="path3325" />
        </g>
        <g
           id="g3327"
           transform="translate(853.1875,908.2964)">
          <path
             inkscape:connector-curvature="0"
             d="M 0,0 254.988,0"
             style="fill:none;stroke:#000000;stroke-width:3;stroke-linecap:butt;stroke-linejoin:miter;stroke-miterlimit:10;stroke-opacity:1;stroke-dasharray:none"
             id="path3329" />
        </g>
        <g
           id="g3331"
           transform="translate(853.1875,938.2964)">
          <path
             inkscape:connector-curvature="0"
             d="M 0,0 254.988,0"
             style="fill:none;stroke:#000000;stroke-width:3;stroke-linecap:butt;stroke-linejoin:miter;stroke-miterlimit:10;stroke-opacity:1;stroke-dasharray:none"
             id="path3333" />
        </g>
        <g
           id="g3335"
           transform="translate(853.1875,968.2964)">
          <path
             inkscape:connector-curvature="0"
             d="M 0,0 254.988,0"
             style="fill:none;stroke:#000000;stroke-width:3;stroke-linecap:butt;stroke-linejoin:miter;stroke-miterlimit:10;stroke-opacity:1;stroke-dasharray:none"
             id="path3337" />
        </g>
      </g>
      <g
         id="g3255">
        <g
           transform="matrix(2.4796157,0,0,2.4796157,-662.60877,-2100.0686)"
           id="g3137">
          <path
             id="path3139"
             style="fill:#ff0000;fill-opacity:1;fill-rule:nonzero;stroke:none"
             d="m 484.87826,1092.6791 55.32104,-31.9398 -55.32104,-31.9386 0,63.8784 z"
             inkscape:connector-curvature="0" />
        </g>
        <g
           id="g3179"
           transform="matrix(3.3705464,0,0,3.3705464,-2092.7458,-3056.3467)"
           style="fill:#000000">
          <g
             id="g3147"
             transform="translate(906.7617,1105.3794)"
             style="fill:#000000" />
          <g
             id="g3275"
             transform="translate(-86.508821,6.8770199)"
             style="fill:#000000">
            <g
               id="g3294"
               transform="translate(-23.367982,1.0246822e-8)"
               style="fill:#000000">
              <g
                 id="g3151"
                 transform="translate(906.8184,1027.3799)"
                 style="fill:#000000">
                <path
                   inkscape:connector-curvature="0"
                   d="m 0,0 c -16.205,0 -29.391,13.185 -29.391,29.392 0,16.205 13.186,29.39 29.391,29.39 16.207,0 29.392,-13.185 29.392,-29.39 C 29.392,13.185 16.207,0 0,0 m 0,62.253 c -18.148,0 -32.861,-14.713 -32.861,-32.861 0,-18.15 14.713,-32.863 32.861,-32.863 18.149,0 32.862,14.713 32.862,32.863 C 32.862,47.54 18.149,62.253 0,62.253"
                   style="fill:#000000;fill-opacity:1;fill-rule:nonzero;stroke:none"
                   id="path3153" />
              </g>
              <g
                 id="g3197"
                 style="fill:#000000">
                <g
                   transform="translate(906.8184,1086.1621)"
                   id="g3155"
                   style="fill:#000000" />
                <g
                   transform="matrix(1.8299358,0,0,1,907.80131,1056.1001)"
                   id="g3159"
                   style="fill:#000000">
                  <path
                     id="path3161"
                     style="fill:#000000;fill-opacity:1;fill-rule:nonzero;stroke:none"
                     d="m 0,0 c 0,-0.524 -0.425,-0.949 -0.949,-0.949 -0.524,0 -0.949,0.425 -0.949,0.949 l 0,28.293 c 0,0.525 0.425,0.95 0.949,0.95 0.524,0 0.949,-0.425 0.949,-0.95 L 0,0 z"
                     inkscape:connector-curvature="0" />
                </g>
                <g
                   transform="translate(909.9639,1086.8833)"
                   id="g3167"
                   style="fill:#000000">
                  <path
                     id="path3169"
                     style="fill:#000000;fill-opacity:1;fill-rule:nonzero;stroke:none"
                     d="m 0,0 c 0,-0.399 -0.37,-0.721 -0.827,-0.721 l -4.246,0 c -0.457,0 -0.826,0.322 -0.826,0.721 l 0,8.26 c 0,0.399 0.369,0.721 0.826,0.721 l 4.246,0 C -0.37,8.981 0,8.659 0,8.26 L 0,0 z"
                     inkscape:connector-curvature="0" />
                </g>
                <g
                   transform="translate(911.9805,1096.6133)"
                   id="g3171"
                   style="fill:#000000">
                  <path
                     id="path3173"
                     style="fill:#000000;fill-opacity:1;fill-rule:nonzero;stroke:none"
                     d="m 0,0 c 0,0.413 -0.335,0.748 -0.747,0.748 l -8.222,0 c -0.413,0 -0.748,-0.335 -0.748,-0.748 0,-0.414 0.335,-0.749 0.748,-0.749 l 8.222,0 C -0.335,-0.749 0,-0.414 0,0"
                     inkscape:connector-curvature="0" />
                </g>
                <g
                   inkscape:transform-center-x="-29.041872"
                   inkscape:transform-center-y="-29.041946"
                   id="g3290"
                   transform="matrix(1.29396,-1.29396,0.70710678,0.70710678,907.96371,1054.5942)"
                   style="fill:#000000">
                  <path
                     inkscape:connector-curvature="0"
                     d="m -0.81157491,0 c 0,-0.524 -0.42499999,-0.949 -0.94899999,-0.949 -0.524,0 -0.949,0.425 -0.949,0.949 l 0,28.293 c 0,0.525 0.425,0.95 0.949,0.95 0.524,0 0.94899999,-0.425 0.94899999,-0.95 l 0,-28.293 z"
                     style="fill:#000000;fill-opacity:1;fill-rule:nonzero;stroke:none"
                     id="path3292" />
                </g>
              </g>
            </g>
          </g>
        </g>
      </g>
    </g>
  </g>
</svg>
