<?xml version="1.0" encoding="UTF-8" standalone="no"?>
<!-- Creator: CorelDRAW X7 -->

<svg
   xmlns:dc="http://purl.org/dc/elements/1.1/"
   xmlns:cc="http://creativecommons.org/ns#"
   xmlns:rdf="http://www.w3.org/1999/02/22-rdf-syntax-ns#"
   xmlns:svg="http://www.w3.org/2000/svg"
   xmlns="http://www.w3.org/2000/svg"
   xmlns:sodipodi="http://sodipodi.sourceforge.net/DTD/sodipodi-0.dtd"
   xmlns:inkscape="http://www.inkscape.org/namespaces/inkscape"
   xml:space="preserve"
   width="297mm"
   height="210mm"
   version="1.1"
   style="shape-rendering:geometricPrecision; text-rendering:geometricPrecision; image-rendering:optimizeQuality; fill-rule:evenodd; clip-rule:evenodd"
   viewBox="0 0 29700 21000"
   id="svg2"
   inkscape:version="0.48.2 r9819"
   sodipodi:docname="newlogo.svg"><metadata
   id="metadata25"><rdf:RDF><cc:Work
       rdf:about=""><dc:format>image/svg+xml</dc:format><dc:type
         rdf:resource="http://purl.org/dc/dcmitype/StillImage" /><dc:title></dc:title></cc:Work></rdf:RDF></metadata><sodipodi:namedview
   pagecolor="#000000"
   bordercolor="#666666"
   borderopacity="1"
   objecttolerance="10"
   gridtolerance="10"
   guidetolerance="10"
   inkscape:pageopacity="0"
   inkscape:pageshadow="2"
   inkscape:window-width="1366"
   inkscape:window-height="708"
   id="namedview23"
   showgrid="false"
   inkscape:zoom="1.0023473"
   inkscape:cx="567.34273"
   inkscape:cy="461.82912"
   inkscape:window-x="-4"
   inkscape:window-y="-4"
   inkscape:window-maximized="1"
   inkscape:current-layer="_250678512" />
 <defs
   id="defs4">
  <style
   type="text/css"
   id="style6">
   
    .fil2 {fill:none}
    .fil1 {fill:#363636}
    .fil0 {fill:#C91C1C}
   
  </style>
 </defs>
 <g
   id="Layer_x0020_1">
  <metadata
   id="CorelCorpID_0Corel-Layer" />
  <g
   id="_250678512">
   <path
   class="fil0"
   d="m 7876,8525 c -148,-1014 14,-2081 526,-3050 30,-56 60,-111 92,-166 1381,-2391 4438,-3210 6829,-1830 74,43 147,87 218,133 720,466 1283,1090 1670,1799 806,1479 846,3331 -58,4897 -515,891 -1263,1564 -2122,1986 -1086,533 -2351,666 -3548,332 71,45 144,90 218,133 1599,923 3497,862 4991,5 2639,525 5368,56 7664,-1266 C 24352,7693 22376,3993 18844,1953 15312,-86.000004 11120,53 7823,1952 c 0,555 42,1107 125,1652 -4,8 -9,16 -14,25 -904,1565 -865,3417 -58,4896 z"
   id="path11"
   inkscape:connector-curvature="0"
   style="fill:#c91c1c"
   inkscape:export-filename="C:\2017Wrapped\icon.png"
   inkscape:export-xdpi="138.85001"
   inkscape:export-ydpi="138.85001" />
   <path
   class="fil1"
   d="M14940 4142c-2025,-1169 -4614,-475 -5783,1550 -1169,2025 -475,4614 1550,5783 2024,1169 4614,475 5783,-1550 1169,-2025 475,-4614 -1550,-5783zm2066 3666l-1877 -1083 -1876 -1083 0 2166 0 2167 1876 -1083 1877 -1084z"
   id="path13"
   inkscape:export-filename="C:\2017Wrapped\icon.png"
   inkscape:export-xdpi="138.85001"
   inkscape:export-ydpi="138.85001"
   style="fill:#666666" />
   
  </g>
  <rect
   class="fil2"
   x="3109"
   y="-2586"
   width="25400"
   height="25400"
   id="rect21" />
 </g>
</svg>